<?xml version="1.0" encoding="UTF-8"?> <!-- Generator: Adobe Illustrator 25.0.1, SVG Export Plug-In . SVG Version: 6.00 Build 0) --> <svg xmlns="http://www.w3.org/2000/svg" xmlns:xlink="http://www.w3.org/1999/xlink" version="1.1" id="Layer_1" x="0px" y="0px" viewBox="0 0 121.6 233.3" style="enable-background:new 0 0 121.6 233.3;" xml:space="preserve"> <style type="text/css"> .st0{clip-path:url(#SVGID_2_);} .st1{fill:#D6AD60;} .st2{fill:#FACE7F;} .st3{clip-path:url(#SVGID_4_);} .st4{fill:#FFFFFF;} .st5{clip-path:url(#SVGID_6_);} .st6{fill:#022B62;} </style> <g> <defs> <rect id="SVGID_1_" x="1.2" width="108.8" height="165.8"></rect> </defs> <clipPath id="SVGID_2_"> <use xlink:href="#SVGID_1_" style="overflow:visible;"></use> </clipPath> <g class="st0"> <path class="st1" d="M1.5,0l39.3,22.6v55.2L13.5,93.1v72.6h-12V0z M109.7,93.1v72.6H61.6V70.7L109.7,98V93.1L109.7,93.1z M84.3,119.1H70.4v9.9h13.9V119.1z M84.3,106.5H70.4v9.9h13.9V106.5z M101,119.1H87v9.9h14V119.1z M101,106.5H87v9.9h14V106.5z"></path> </g> </g> <path class="st2" d="M61.6,70.7V129H40.7V77.8l16.8-9.4L61.6,70.7L61.6,70.7z"></path> <g> <defs> <rect id="SVGID_3_" x="12.7" y="77.8" width="89" height="87.9"></rect> </defs> <clipPath id="SVGID_4_"> <use xlink:href="#SVGID_3_" style="overflow:visible;"></use> </clipPath> <g class="st3"> <path class="st4" d="M40.8,129h0.1v36.8H13.5V93.1l27.3-15.3L40.8,129L40.8,129z M70.4,116.4h13.9v-9.9H70.4V116.4z M70.4,129 h13.9v-9.9H70.4V129z M87,106.5v9.9h14v-9.9H87z M87,129h14v-9.9H87V129z"></path> </g> </g> <g> <defs> <rect id="SVGID_5_" x="40.7" y="21.8" width="69.3" height="143.9"></rect> </defs> <clipPath id="SVGID_6_"> <use xlink:href="#SVGID_5_" style="overflow:visible;"></use> </clipPath> <g class="st5"> <path class="st6" d="M40.9,129h20.7v36.8H40.9V129z M61.6,59.3V34.7l-20.9-12v55.2l16.8-9.4l4,2.3L109.7,98V86.7L61.6,59.3z"></path> </g> </g> <g> <g> <g> <path class="st6" d="M0,213.5v-29.2h8.3c3.4,0,6.1,0.6,8.1,1.7c2,1.1,3,2.9,3,5.2c0,1.6-0.6,3-1.7,4.2c-1.1,1.2-2.7,2.1-4.7,2.7 c2.7,0.5,4.7,1.4,6.1,2.7c1.4,1.3,2.1,2.8,2.1,4.3c0,1.6-0.4,2.9-1.2,4c-0.8,1.1-1.8,1.9-3,2.5c-2.5,1.2-5.1,1.9-7.7,1.9H0z M4.3,197.6h3.2c2.7,0,4.6-0.6,5.8-1.8c1.2-1.2,1.8-2.7,1.8-4.5c0-1.2-0.4-2.3-1.2-3.3c-0.8-1-2-1.7-3.7-2.2 c-2,0-3.9,0.3-5.8,0.9V197.6z M4.3,198.9v12.6c0.9,0.3,2.4,0.4,4.4,0.4s3.7-0.5,5.2-1.6c1.5-1.1,2.3-2.6,2.3-4.5 c0-1.9-0.8-3.6-2.5-4.9c-1.7-1.3-3.7-2-6-2H4.3z"></path> </g> </g> </g> <g> <g> <g> <path class="st6" d="M32.7,199.5v14h-4.3v-29.2H38c3,0,5.4,0.7,7.3,2c1.9,1.3,2.8,3.1,2.8,5.2c0,2.2-0.8,3.9-2.3,5.1 c-1.5,1.2-3.6,2.1-6.1,2.6l11.8,14.3l-5.1,0.6l-10.2-14.6H32.7z M32.7,198.2h2.8c5.3,0,7.9-2.1,7.9-6.3c0-0.7-0.2-1.5-0.5-2.4 c-0.7-1.9-2.1-3.1-4.3-3.7c-2,0-4,0.2-5.9,0.8V198.2z"></path> </g> </g> </g> <g> <g> <g> <path class="st6" d="M60.6,184.3v29.2h-4.1v-29.2H60.6z"></path> </g> </g> </g> <g> <g> <g> <path class="st6" d="M90.8,214H90l-19.3-24.2h-0.2v23.7h-2v-29.2h3.3l16.8,21.2h0.2v-21.2h1.9V214z"></path> </g> </g> </g> <g> <g> <g> <path class="st6" d="M103.2,213.5h-4.5v-29.2h4.5v14.4l13.6-14.4h2.9L106,197.9l15.7,15.6l-5.6,0.6l-12.8-15V213.5z"></path> </g> </g> </g> <g> <g> <g> <path class="st6" d="M36.4,233.3l-3-6.8h1.1l2.2,5.4l2-5.4h0.5l-2.6,6.8H36.4z"></path> </g> </g> </g> <g> <g> <g> <path class="st6" d="M39.4,233.1l3-6.8h0.2l3,6.8h-1.1l-0.8-1.8h-3l-0.7,1.8H39.4z M40.8,230.9h2.7l-1.3-3.2L40.8,230.9z"></path> </g> </g> </g> <g> <g> <g> <path class="st6" d="M47.2,227.6c0,0.3,0.1,0.6,0.3,0.8c0.2,0.2,0.5,0.5,0.8,0.7c0.3,0.2,0.7,0.4,1,0.6c0.3,0.2,0.6,0.4,0.8,0.7 c0.2,0.3,0.3,0.6,0.3,1c0,0.5-0.2,1-0.6,1.3c-0.4,0.3-0.9,0.5-1.6,0.5s-1.4-0.1-2-0.4v-0.5c0.7,0.3,1.3,0.5,1.7,0.5 c0.5,0,0.8-0.1,1.1-0.3c0.3-0.2,0.4-0.6,0.4-1c0-0.3-0.1-0.5-0.3-0.8c-0.2-0.2-0.5-0.4-0.8-0.6c-0.3-0.2-0.6-0.4-0.9-0.5 c-0.3-0.2-0.6-0.4-0.8-0.7c-0.2-0.3-0.3-0.6-0.3-1c0-0.4,0.2-0.8,0.5-1.1c0.4-0.3,0.9-0.5,1.6-0.5c0.5,0,1,0.1,1.7,0.3l-0.1,0.7 c-0.9-0.4-1.7-0.6-2.3-0.6C47.3,226.9,47.2,227.2,47.2,227.6z"></path> </g> </g> </g> <g> <g> <g> <path class="st6" d="M54.3,233.1h-1V227c-0.2-0.1-0.5-0.1-0.7-0.1l-1.4,0.3l-0.1-0.7h5.2l0,0.7l-1.4-0.3c-0.2,0-0.5,0-0.7,0.1 V233.1z"></path> </g> </g> </g> <g> <g> <g> <path class="st6" d="M61.5,230.3h1v2.6c-0.6,0.2-1.3,0.3-2.1,0.3c-1,0-1.8-0.3-2.5-0.8c-0.3-0.3-0.6-0.6-0.8-1 c-0.2-0.4-0.3-0.9-0.3-1.4c0-0.5,0.1-1,0.2-1.4c0.2-0.4,0.4-0.8,0.6-1c0.3-0.3,0.6-0.5,0.9-0.7c0.6-0.4,1.3-0.5,2.1-0.5 c0.3,0,0.6,0,0.9,0.1c0.3,0.1,0.6,0.1,0.8,0.2l-0.1,0.7c-0.9-0.4-1.6-0.6-2.2-0.6c-0.7,0.2-1.2,0.5-1.6,1.1 c-0.4,0.5-0.6,1.2-0.6,2c0,1,0.3,1.7,0.8,2.3c0.5,0.5,1.2,0.8,2,0.8c0.3,0,0.6,0,0.9-0.1V230.3z"></path> </g> </g> </g> <g> <g> <g> <path class="st6" d="M67.2,226.4c0.9,0,1.6,0.3,2.1,0.9c0.6,0.6,0.9,1.4,0.9,2.4c0,0.7-0.1,1.2-0.3,1.7c-0.2,0.5-0.5,0.9-0.9,1.1 c-0.7,0.5-1.5,0.8-2.4,0.8c-0.9,0-1.6-0.3-2.1-0.9c-0.6-0.6-0.8-1.4-0.8-2.4c0-0.5,0.1-1,0.2-1.4c0.2-0.4,0.4-0.8,0.6-1 c0.2-0.3,0.5-0.5,0.8-0.7C65.8,226.5,66.5,226.4,67.2,226.4z M65.2,232c0.2,0.3,0.4,0.5,0.7,0.7c0.3,0.2,0.6,0.2,1,0.2 c0.4,0,0.7-0.1,1-0.3c0.3-0.2,0.5-0.5,0.7-0.8c0.3-0.6,0.5-1.3,0.5-2c0-0.9-0.2-1.6-0.5-2.1c-0.4-0.6-1-0.9-1.9-0.9 c-0.6,0.2-1.1,0.6-1.5,1.2c-0.3,0.6-0.5,1.2-0.5,1.9C64.7,230.7,64.8,231.4,65.2,232z"></path> </g> </g> </g> <g> <g> <g> <path class="st6" d="M71.4,233.1v-6.6h4l-0.1,0.7l-1.9-0.3c-0.3,0-0.7,0.1-1.1,0.2v2.4h2.2v0.4h-2.2v2.9l3.1-0.3l-0.1,0.7H71.4z"></path> </g> </g> </g> <g> <g> <g> <path class="st6" d="M77,233.1v-6.6h1.9c0.8,0,1.5,0.2,2.1,0.5c0.3,0.2,0.6,0.4,0.9,0.7c0.2,0.3,0.5,0.6,0.6,1 c0.2,0.4,0.2,0.8,0.2,1.3c0,0.7-0.2,1.3-0.5,1.8c-0.6,0.9-1.7,1.3-3.1,1.3H77z M78.9,232.8c0.8,0,1.5-0.2,2-0.8 c0.5-0.5,0.8-1.2,0.8-2.2c0-0.7-0.2-1.4-0.6-1.9s-0.9-0.9-1.6-1.1c-0.6,0-1.1,0.1-1.5,0.2v5.6C78.2,232.7,78.5,232.8,78.9,232.8z "></path> </g> </g> </g> </svg> 