<?xml version="1.0" encoding="UTF-8"?> <!-- Generator: Adobe Illustrator 25.0.1, SVG Export Plug-In . SVG Version: 6.00 Build 0) --> <svg xmlns="http://www.w3.org/2000/svg" xmlns:xlink="http://www.w3.org/1999/xlink" version="1.1" id="Layer_1" x="0px" y="0px" viewBox="0 0 64.9 34.7" style="enable-background:new 0 0 64.9 34.7;" xml:space="preserve"> <style type="text/css"> .st0{clip-path:url(#SVGID_2_);} .st1{fill:#D6AD60;} .st2{fill:#022B62;} </style> <g> <defs> <rect id="SVGID_1_" x="28.6" width="5" height="5"></rect> </defs> <clipPath id="SVGID_2_"> <use xlink:href="#SVGID_1_" style="overflow:visible;"></use> </clipPath> <g class="st0"> <path class="st1" d="M28.7,2.7c-0.1-0.1-0.1-0.2,0-0.3L31,0.1c0.1-0.1,0.2-0.1,0.3,0l2.2,2.2c0.1,0.1,0.1,0.2,0,0.3l-2.2,2.2 C31.2,5,31.1,5,31,4.9L28.7,2.7z"></path> </g> </g> <g> <g transform="translate(49.880926, 33.154105)"> <g> <path class="st2" d="M-49.9-10.8v-15.6h4.4c1.8,0,3.2,0.3,4.3,0.9c1.1,0.6,1.6,1.5,1.6,2.8c0,0.9-0.3,1.6-0.9,2.2 c-0.6,0.6-1.4,1.1-2.5,1.5c1.4,0.3,2.5,0.7,3.2,1.4c0.7,0.7,1.1,1.5,1.1,2.3c0,0.8-0.2,1.6-0.6,2.1c-0.4,0.6-1,1-1.6,1.4 c-1.3,0.7-2.7,1-4.1,1H-49.9z M-47.6-19.3h1.7c1.4,0,2.4-0.3,3.1-0.9c0.6-0.6,0.9-1.4,0.9-2.4c0-0.6-0.2-1.2-0.6-1.8 c-0.4-0.5-1.1-0.9-2-1.2c-1.1,0-2.1,0.2-3.1,0.5V-19.3z M-47.6-18.6v6.7c0.5,0.2,1.3,0.2,2.3,0.2c1.1,0,2-0.3,2.8-0.9 c0.8-0.6,1.2-1.4,1.2-2.4c0-1-0.4-1.9-1.3-2.6c-0.9-0.7-2-1.1-3.2-1.1H-47.6z"></path> </g> </g> </g> <g> <g transform="translate(61.249444, 33.154105)"> <g> <path class="st2" d="M-43.8-18.2v7.4h-2.3v-15.6h5.1c1.6,0,2.9,0.4,3.9,1.1c1,0.7,1.5,1.6,1.5,2.8c0,1.2-0.4,2.1-1.2,2.7 c-0.8,0.7-1.9,1.1-3.3,1.4l6.3,7.6l-2.7,0.3l-5.5-7.8H-43.8z M-43.8-18.9h1.5c2.8,0,4.2-1.1,4.2-3.3c0-0.4-0.1-0.8-0.3-1.3 c-0.4-1-1.1-1.7-2.3-2c-1.1,0-2.1,0.1-3.2,0.4V-18.9z"></path> </g> </g> </g> <g> <g transform="translate(72.512047, 33.154105)"> <g> <path class="st2" d="M-40.2-26.4v15.6h-2.2v-15.6H-40.2z"></path> </g> </g> </g> <g> <g transform="translate(77.313658, 33.154105)"> <g> <path class="st2" d="M-28.9-10.5h-0.4l-10.3-12.9h-0.1v12.6h-1v-15.6h1.7l9,11.3h0.1v-11.3h1V-10.5z"></path> </g> </g> </g> <g> <g transform="translate(89.370645, 33.154105)"> <g> <path class="st2" d="M-34.3-10.8h-2.4v-15.6h2.4v7.7l7.3-7.7h1.6l-7.4,7.2l8.4,8.3l-3,0.3l-6.8-8V-10.8z"></path> </g> </g> </g> <g> <g transform="translate(56.648023, 42.275418)"> <g> <path class="st2" d="M-46.9-7.6l-2.8-6.3h1l2.1,5.1l1.9-5.1h0.5l-2.5,6.3H-46.9z"></path> </g> </g> </g> <g> <g transform="translate(60.827116, 42.275418)"> <g> <path class="st2" d="M-48.3-7.8l2.8-6.3h0.1l2.8,6.3h-1l-0.7-1.7h-2.8l-0.7,1.7H-48.3z M-46.9-9.8h2.5l-1.2-3L-46.9-9.8z"></path> </g> </g> </g> <g> <g transform="translate(65.230213, 42.275418)"> <g> <path class="st2" d="M-45.4-12.9c0,0.3,0.1,0.5,0.3,0.8c0.2,0.2,0.5,0.4,0.8,0.6c0.3,0.2,0.6,0.4,0.9,0.5 c0.3,0.2,0.6,0.4,0.8,0.7c0.2,0.3,0.3,0.6,0.3,0.9c0,0.5-0.2,0.9-0.6,1.2c-0.4,0.3-0.9,0.5-1.5,0.5c-0.6,0-1.3-0.1-1.9-0.4v-0.4 c0.6,0.3,1.2,0.5,1.6,0.5c0.4,0,0.8-0.1,1-0.3c0.2-0.2,0.4-0.5,0.4-0.9c0-0.3-0.1-0.5-0.3-0.7c-0.2-0.2-0.5-0.4-0.8-0.6 c-0.3-0.2-0.6-0.3-0.9-0.5c-0.3-0.2-0.5-0.4-0.8-0.6c-0.2-0.3-0.3-0.6-0.3-0.9c0-0.4,0.2-0.7,0.5-1c0.3-0.3,0.8-0.5,1.5-0.5 c0.4,0,0.9,0.1,1.6,0.3l-0.1,0.6c-0.8-0.4-1.6-0.5-2.1-0.5C-45.2-13.5-45.4-13.2-45.4-12.9z"></path> </g> </g> </g> <g> <g transform="translate(69.122299, 42.275418)"> <g> <path class="st2" d="M-42.6-7.8h-0.9v-5.7c-0.2-0.1-0.4-0.1-0.6-0.1l-1.3,0.3l-0.1-0.7h4.8l0,0.7l-1.3-0.3c-0.2,0-0.4,0-0.6,0.1 V-7.8z"></path> </g> </g> </g> <g> <g transform="translate(72.867383, 42.275418)"> <g> <path class="st2" d="M-39.6-10.4h0.9V-8c-0.5,0.2-1.2,0.3-1.9,0.3c-0.9,0-1.7-0.2-2.4-0.7c-0.3-0.2-0.6-0.5-0.8-0.9 c-0.2-0.4-0.3-0.8-0.3-1.3c0-0.5,0.1-0.9,0.2-1.3c0.2-0.4,0.3-0.7,0.6-1c0.2-0.3,0.5-0.5,0.8-0.7c0.6-0.3,1.2-0.5,2-0.5 c0.3,0,0.6,0,0.9,0.1c0.3,0.1,0.6,0.1,0.7,0.2l-0.1,0.6c-0.8-0.4-1.6-0.5-2.1-0.5c-0.6,0.2-1.1,0.5-1.5,1 c-0.4,0.5-0.5,1.1-0.5,1.8c0,0.9,0.2,1.6,0.7,2.1c0.5,0.5,1.1,0.8,1.9,0.8c0.3,0,0.6,0,0.9-0.1V-10.4z"></path> </g> </g> </g> <g> <g transform="translate(77.627495, 42.275418)"> <g> <path class="st2" d="M-39.1-14c0.8,0,1.5,0.3,2,0.8c0.5,0.5,0.8,1.3,0.8,2.2c0,0.6-0.1,1.1-0.3,1.6c-0.2,0.5-0.5,0.8-0.8,1 c-0.7,0.5-1.4,0.7-2.2,0.7c-0.8,0-1.5-0.3-2-0.8c-0.5-0.5-0.8-1.3-0.8-2.2c0-0.5,0.1-0.9,0.2-1.3c0.1-0.4,0.3-0.7,0.5-1 c0.2-0.2,0.5-0.5,0.8-0.6C-40.3-13.9-39.8-14-39.1-14z M-41-8.8c0.2,0.3,0.4,0.5,0.6,0.6c0.3,0.2,0.6,0.2,1,0.2 c0.4,0,0.7-0.1,1-0.3c0.3-0.2,0.5-0.4,0.6-0.7c0.3-0.6,0.5-1.2,0.5-1.9c0-0.8-0.2-1.5-0.5-2c-0.4-0.6-1-0.9-1.8-0.9 c-0.6,0.2-1.1,0.6-1.4,1.1c-0.3,0.5-0.5,1.1-0.5,1.8C-41.4-10-41.3-9.4-41-8.8z"></path> </g> </g> </g> <g> <g transform="translate(82.702608, 42.275418)"> <g> <path class="st2" d="M-40.2-7.8v-6.2h3.8l-0.1,0.6l-1.7-0.3c-0.3,0-0.6,0.1-1,0.1v2.3h2.1v0.4h-2.1v2.7l2.9-0.3l-0.1,0.6H-40.2z"></path> </g> </g> </g> <g> <g transform="translate(86.636698, 42.275418)"> <g> <path class="st2" d="M-38.9-7.8v-6.2h1.8c0.7,0,1.4,0.2,2,0.5c0.3,0.2,0.6,0.4,0.8,0.6c0.2,0.2,0.4,0.6,0.6,0.9 c0.2,0.4,0.2,0.8,0.2,1.2c0,0.7-0.2,1.2-0.5,1.7c-0.6,0.8-1.6,1.2-2.9,1.2H-38.9z M-37.1-8.1c0.8,0,1.4-0.2,1.9-0.7 c0.5-0.5,0.7-1.2,0.7-2.1c0-0.7-0.2-1.3-0.6-1.8c-0.4-0.5-0.9-0.8-1.5-1c-0.5,0-1,0.1-1.4,0.2v5.2C-37.8-8.1-37.5-8.1-37.1-8.1z"></path> </g> </g> </g> <g> <g transform="translate(91.584766, 42.275418)"> </g> </g> </svg> 