<?xml version="1.0" encoding="UTF-8"?> <!-- Generator: Adobe Illustrator 25.0.1, SVG Export Plug-In . SVG Version: 6.00 Build 0) --> <svg xmlns="http://www.w3.org/2000/svg" xmlns:xlink="http://www.w3.org/1999/xlink" version="1.1" id="Laag_1" x="0px" y="0px" viewBox="0 0 66 36.6" style="enable-background:new 0 0 66 36.6;" xml:space="preserve"> <style type="text/css"> .st0{clip-path:url(#SVGID_2_);} .st1{fill:#FFFFFF;} </style> <g> <defs> <rect id="SVGID_1_" x="29.7" width="5" height="5"></rect> </defs> <clipPath id="SVGID_2_"> <use xlink:href="#SVGID_1_" style="overflow:visible;"></use> </clipPath> <g class="st0"> <path class="st1" d="M29.8,2.7c-0.1-0.1-0.1-0.2,0-0.3l2.2-2.2c0.1-0.1,0.2-0.1,0.3,0l2.2,2.2c0.1,0.1,0.1,0.2,0,0.3l-2.2,2.2 c-0.1,0.1-0.2,0.1-0.3,0L29.8,2.7z"></path> </g> </g> <g> <g transform="translate(49.880926, 37.24019)"> <g> <path class="st1" d="M-48.8-12.2v-15.6h4.4c1.8,0,3.2,0.3,4.3,0.9c1.1,0.6,1.6,1.5,1.6,2.8c0,0.9-0.3,1.6-0.9,2.2 c-0.6,0.6-1.4,1.1-2.5,1.5c1.4,0.3,2.5,0.7,3.2,1.4c0.7,0.7,1.1,1.5,1.1,2.3c0,0.8-0.2,1.6-0.6,2.1c-0.4,0.6-1,1-1.6,1.4 c-1.3,0.7-2.7,1-4.1,1H-48.8z M-46.5-20.6h1.7c1.4,0,2.4-0.3,3.1-0.9c0.6-0.6,0.9-1.4,0.9-2.4c0-0.6-0.2-1.2-0.6-1.8 c-0.4-0.5-1.1-0.9-2-1.2c-1.1,0-2.1,0.2-3.1,0.5V-20.6z M-46.5-19.9v6.7c0.5,0.2,1.3,0.2,2.3,0.2c1.1,0,2-0.3,2.8-0.9 c0.8-0.6,1.2-1.4,1.2-2.4c0-1-0.4-1.9-1.3-2.6c-0.9-0.7-2-1.1-3.2-1.1H-46.5z"></path> </g> </g> </g> <g> <g transform="translate(61.249444, 37.24019)"> <g> <path class="st1" d="M-42.7-19.6v7.4H-45v-15.6h5.1c1.6,0,2.9,0.4,3.9,1.1c1,0.7,1.5,1.6,1.5,2.8c0,1.2-0.4,2.1-1.2,2.7 c-0.8,0.7-1.9,1.1-3.3,1.4l6.3,7.6l-2.7,0.3l-5.5-7.8H-42.7z M-42.7-20.3h1.5c2.8,0,4.2-1.1,4.2-3.3c0-0.4-0.1-0.8-0.3-1.3 c-0.4-1-1.1-1.7-2.3-2c-1.1,0-2.1,0.1-3.2,0.4V-20.3z"></path> </g> </g> </g> <g> <g transform="translate(72.512047, 37.24019)"> <g> <path class="st1" d="M-39.1-27.7v15.6h-2.2v-15.6H-39.1z"></path> </g> </g> </g> <g> <g transform="translate(77.313658, 37.24019)"> <g> <path class="st1" d="M-27.8-11.9h-0.4l-10.3-12.9h-0.1v12.6h-1v-15.6h1.7l9,11.3h0.1v-11.3h1V-11.9z"></path> </g> </g> </g> <g> <g transform="translate(89.370645, 37.24019)"> <g> <path class="st1" d="M-33.2-12.2h-2.4v-15.6h2.4v7.7l7.3-7.7h1.6l-7.4,7.2l8.4,8.3l-3,0.3l-6.8-8V-12.2z"></path> </g> </g> </g> <g> <g transform="translate(50.58673, 45.791043)"> <g> <path class="st1" d="M-50.6-9.3l2.8-6.3h0.1l2.8,6.3h-1l-0.7-1.7h-2.8l-0.7,1.7H-50.6z M-49.2-11.3h2.5l-1.2-3L-49.2-11.3z"></path> </g> </g> </g> <g> <g transform="translate(54.989828, 45.791043)"> <g> <path class="st1" d="M-48.4-9.3v-6.2h1.8c0.7,0,1.4,0.2,2,0.5c0.3,0.2,0.6,0.4,0.8,0.6c0.2,0.2,0.4,0.6,0.6,0.9 c0.2,0.4,0.2,0.8,0.2,1.2c0,0.7-0.2,1.2-0.5,1.7c-0.6,0.8-1.6,1.2-2.9,1.2H-48.4z M-46.6-9.6c0.8,0,1.4-0.2,1.9-0.7 c0.5-0.5,0.7-1.2,0.7-2.1c0-0.7-0.2-1.3-0.6-1.8c-0.4-0.5-0.9-0.8-1.5-1c-0.5,0-1,0.1-1.4,0.2v5.2C-47.2-9.6-47-9.6-46.6-9.6z"></path> </g> </g> </g> <g> <g transform="translate(59.945942, 45.791043)"> <g> <path class="st1" d="M-44.7-9.2l-2.8-6.3h1l2.1,5.1l1.9-5.1h0.5l-2.5,6.3H-44.7z"></path> </g> </g> </g> <g> <g transform="translate(64.125035, 45.791043)"> <g> <path class="st1" d="M-44.4-15.5v6.2h-0.9v-6.2H-44.4z"></path> </g> </g> </g> <g> <g transform="translate(66.029078, 45.791043)"> <g> <path class="st1" d="M-44.7-9.3v-6.2h3.8l-0.1,0.6l-1.7-0.3c-0.3,0-0.6,0.1-1,0.1v2.3h2.1v0.4h-2.1v2.7l2.9-0.3L-41-9.3H-44.7z"></path> </g> </g> </g> <g> <g transform="translate(69.963168, 45.791043)"> <g> <path class="st1" d="M-42.7-14.4c0,0.3,0.1,0.5,0.3,0.8c0.2,0.2,0.5,0.4,0.8,0.6c0.3,0.2,0.6,0.4,0.9,0.5 c0.3,0.2,0.6,0.4,0.8,0.7c0.2,0.3,0.3,0.6,0.3,0.9c0,0.5-0.2,0.9-0.6,1.2c-0.4,0.3-0.9,0.5-1.5,0.5c-0.6,0-1.3-0.1-1.9-0.4V-10 c0.6,0.3,1.2,0.5,1.6,0.5c0.4,0,0.8-0.1,1-0.3c0.2-0.2,0.4-0.5,0.4-0.9c0-0.3-0.1-0.5-0.3-0.7c-0.2-0.2-0.5-0.4-0.8-0.6 c-0.3-0.2-0.6-0.3-0.9-0.5c-0.3-0.2-0.5-0.4-0.8-0.6c-0.2-0.3-0.3-0.6-0.3-0.9c0-0.4,0.2-0.7,0.5-1c0.3-0.3,0.8-0.5,1.5-0.5 c0.4,0,0.9,0.1,1.6,0.3l-0.1,0.6c-0.8-0.4-1.6-0.5-2.1-0.5C-42.5-15.1-42.7-14.8-42.7-14.4z"></path> </g> </g> </g> <g> <g transform="translate(73.855254, 45.791043)"> </g> </g> <g> <g transform="translate(75.60529, 45.791043)"> <g> <path class="st1" d="M-37.6-12h0.9v2.5c-0.5,0.2-1.2,0.3-1.9,0.3c-0.9,0-1.7-0.2-2.4-0.7c-0.3-0.2-0.6-0.5-0.8-0.9 c-0.2-0.4-0.3-0.8-0.3-1.3c0-0.5,0.1-0.9,0.2-1.3c0.2-0.4,0.3-0.7,0.6-1c0.2-0.3,0.5-0.5,0.8-0.7c0.6-0.3,1.2-0.5,2-0.5 c0.3,0,0.6,0,0.9,0.1c0.3,0.1,0.6,0.1,0.7,0.2l-0.1,0.6c-0.8-0.4-1.6-0.5-2.1-0.5c-0.6,0.2-1.1,0.5-1.5,1 c-0.4,0.5-0.5,1.1-0.5,1.8c0,0.9,0.2,1.6,0.7,2.1c0.5,0.5,1.1,0.8,1.9,0.8c0.3,0,0.6,0,0.9-0.1V-12z"></path> </g> </g> </g> <g> <g transform="translate(80.365402, 45.791043)"> <g> <path class="st1" d="M-39-12.3v3h-0.9v-6.2h2c0.6,0,1.1,0.1,1.5,0.4c0.4,0.3,0.6,0.6,0.6,1.1s-0.2,0.8-0.5,1.1 c-0.3,0.3-0.8,0.4-1.3,0.5l2.5,3l-1.1,0.1l-2.2-3.1H-39z M-39-12.5h0.6c1.1,0,1.7-0.4,1.7-1.3c0-0.1,0-0.3-0.1-0.5 c-0.1-0.4-0.4-0.6-0.9-0.8c-0.4,0-0.8,0.1-1.2,0.2V-12.5z"></path> </g> </g> </g> <g> <g transform="translate(84.831502, 45.791043)"> <g> <path class="st1" d="M-35.6-15.6c0.8,0,1.5,0.3,2,0.8c0.5,0.5,0.8,1.3,0.8,2.2c0,0.6-0.1,1.1-0.3,1.6c-0.2,0.5-0.5,0.8-0.8,1 c-0.7,0.5-1.4,0.7-2.2,0.7c-0.8,0-1.5-0.3-2-0.8c-0.5-0.5-0.8-1.3-0.8-2.2c0-0.5,0.1-0.9,0.2-1.3c0.1-0.4,0.3-0.7,0.5-1 c0.2-0.2,0.5-0.5,0.8-0.6C-36.8-15.4-36.2-15.6-35.6-15.6z M-37.5-10.4c0.2,0.3,0.4,0.5,0.6,0.6c0.3,0.2,0.6,0.2,1,0.2 c0.4,0,0.7-0.1,1-0.3c0.3-0.2,0.5-0.4,0.6-0.7c0.3-0.6,0.5-1.2,0.5-1.9c0-0.8-0.2-1.5-0.5-2c-0.4-0.6-1-0.9-1.8-0.9 c-0.6,0.2-1.1,0.6-1.4,1.1c-0.3,0.5-0.5,1.1-0.5,1.8C-37.9-11.6-37.8-10.9-37.5-10.4z"></path> </g> </g> </g> <g> <g transform="translate(89.906615, 45.791043)"> <g> <path class="st1" d="M-36.7-9.3v-6.2h3.8l-0.1,0.6l-1.7-0.3c-0.3,0-0.6,0.1-1,0.1v2.3h2.1v0.4h-2.1v2.7l2.9-0.3L-33-9.3H-36.7z"></path> </g> </g> </g> <g> <g transform="translate(93.840705, 45.791043)"> <g> <path class="st1" d="M-31.3-13.9c0,0.6-0.2,1.1-0.7,1.4c-0.4,0.3-1,0.5-1.8,0.5h-0.8v2.8h-0.9v-6.2h2c0.6,0,1.1,0.1,1.5,0.4 C-31.5-14.8-31.3-14.4-31.3-13.9z M-34.5-12.3h0.8c0.3,0,0.5-0.1,0.8-0.2c0.2-0.1,0.4-0.3,0.4-0.4c0.2-0.3,0.3-0.6,0.3-0.9 c0-0.2,0-0.3-0.1-0.5c-0.2-0.4-0.5-0.7-0.9-0.8c-0.4,0-0.9,0.1-1.2,0.1V-12.3z"></path> </g> </g> </g> <g> <g transform="translate(97.655173, 45.791043)"> </g> </g> </svg> 